<svg xmlns="http://www.w3.org/2000/svg" viewBox="0 0 24 24" width="24" height="24">
  <circle cx="12" cy="12" r="11" fill="#4CAF50" />
  <path d="M17.6,11.48 C16.85,10.73 16.56,10.11 16.7,9.8 C16.27,8.79 15.59,8.26 14.7,8.04 C14.42,7.95 14.28,7.55 14.41,7.29 C14.34,7.06 14.26,6.71 14.26,6.41 C14.26,5.55 13.45,4.53 12.38,4.53 C11.21,4.53 10.72,5.01 10.37,5.01 C10.06,5.01 9.5,4.53 8.5,4.53 C6.85,4.53 5,5.94 5,8.46 C5,11.01 6.7,13.64 7.68,14.3 C8.33,14.75 8.97,14.34 9.74,14.66 C10.5,14.97 11.26,15.15 12.08,15.15 C12.75,15.15 13.22,14.97 13.58,14.66 C13.85,14.41 14.09,14.18 14.38,14.3 C15.3,14.66 16.53,11.33 16.53,11.33 C16.53,11.33 17.06,11.9 17.6,11.48 Z" fill="white" />
</svg> 